<?xml version="1.0"?>
<svg width="1024" height="1024" xmlns="http://www.w3.org/2000/svg" xmlns:svg="http://www.w3.org/2000/svg" enable-background="new 0 0 1024 1024" version="1.1" xml:space="preserve">
 <g class="layer">
  <title>Layer 1</title>
  <path d="m232.91,543c0,-62.83 0.09,-125.16 -0.02,-187.49c-0.07,-37.35 11.13,-70.44 36.67,-98.1c20.42,-22.14 45.72,-35.75 75.18,-41.69c9.98,-2.01 20.11,-2.72 30.27,-2.73c90.33,-0.02 180.66,0.15 270.99,-0.05c36.93,-0.08 70.1,10.14 97.86,34.91c25.45,22.69 40.27,51.29 44.62,85.26c0.75,5.83 0.94,11.62 0.86,17.43c-0.33,24.82 0.85,49.63 0.2,74.46c-0.64,24.78 -0.46,49.59 -0.02,74.37c0.4,23.15 -0.15,46.29 0.23,69.45c0.47,28.8 0.5,57.65 -0.65,86.42c-1.16,28.76 -11.72,54.53 -29.69,77.03c-22.45,28.1 -51.78,44.45 -87.25,49.7c-6.4,0.94 -12.96,1.05 -19.44,1.06c-93.5,0.06 -187,0.6 -280.48,-0.16c-59.22,-0.48 -102.11,-28.55 -127.71,-82.01c-7.01,-14.63 -10.41,-30.54 -10.87,-46.9c-1.02,-36.81 -0.59,-73.64 -0.75,-110.96m139.06,105.59c0.94,1.45 0.72,3.59 2.88,4.71c4.2,-4.48 8.38,-8.98 12.59,-13.43c4.24,-4.48 8.53,-8.9 12.77,-13.38c6.81,-7.22 7.64,-7.13 13.79,0.65c2.2,2.77 2.89,4.94 -0.18,7.61c-2.88,2.51 -5.37,5.47 -8.03,8.22c-7.9,8.18 -16.31,15.9 -23.74,25.45c15.38,-4.85 29.93,-2.73 44.41,0.98c20.97,5.37 40.19,15.09 59.49,24.47c27.88,13.54 54.79,28.93 81.54,44.56c9.13,5.33 9.05,5.34 16.6,-1.27c25.06,-21.96 50.18,-43.85 75.23,-65.82c31.06,-27.24 62.14,-54.47 93.01,-81.93c7.19,-6.4 10.56,-12.72 9.66,-22.21c-0.43,-4.57 -1.48,-7.25 -5.85,-9.06c-49.72,-20.64 -97.94,-44.52 -146.25,-68.2c-1.43,-0.7 -3.24,-0.99 -4.06,-3.68c18.43,-18.51 38.62,-35.71 58.8,-54.82c-7.68,-1.99 -13.92,-3.6 -20.16,-5.22c-7.28,-1.88 -7.12,-1.87 -6.82,-9.46c0.15,-3.78 1.37,-5.07 5.2,-4.12c10,2.5 20.11,4.61 30.08,7.25c4.03,1.07 6.89,0.4 9.87,-2.52c17.29,-16.88 34.7,-33.64 52.11,-50.39c5.35,-5.14 5.34,-5 11.06,0.05c4.66,4.11 9.06,8.61 14.8,11.65c2.37,-8.16 1.81,-9.78 -5.02,-12.25c-17.28,-6.28 -32.71,-15.59 -46.43,-27.8c-2.33,-2.07 -4.67,-4.13 -6.82,-6.02c-2.82,1.09 -2.25,4.51 -4.98,5.25c-0.62,-3.02 4.22,-5.74 0.66,-8.78c-2.08,0.26 -1.92,3.26 -4.62,3.06c1.65,-3.79 3.81,-7.54 -1.8,-9.46c-2.44,1.55 -3.03,4.79 -5.92,6.33c-0.46,-3.71 3.44,-5.81 3.04,-9.55c-6.23,3.04 -9.23,9.42 -15.14,12.75c-3.57,-5.43 -6.91,-10.56 -10.32,-15.65c-0.92,-1.36 -1.86,-3.27 -3.69,-3.01c-4.32,0.59 -8.91,0.17 -13.36,2.75c12.87,24.61 26.87,48.34 37.45,73.76c-4.3,-2.04 -4.53,-7.34 -8.78,-9.59c-4.45,4.86 -6.67,11.2 -11.78,16.14c-8.39,-12.28 -14.48,-25.45 -23.24,-37.47c-6.53,4.64 -10.64,11.26 -16.47,16.1c-2.81,-2.2 -3.69,-5.19 -5.22,-7.69c-1.87,-3.04 -3.83,-4.45 -7.75,-3.47c-6.14,1.53 -12.18,3.36 -18.26,5.08c-2.22,0.63 -4.35,2.18 -7.57,1.34c11.18,-13.51 23.65,-24.96 36.21,-38c-6.09,0 -11.04,-0.35 -15.92,0.14c-2.85,0.28 -4.24,-0.58 -5.66,-2.77c-1.57,-2.42 -2.78,-5.23 -5.47,-7.1c-12.66,12.35 -22.43,26.97 -35.86,38.72c-4.26,-7.76 -8.13,-14.83 -12.23,-22.29c-7.47,6.07 -13.61,12.81 -21.81,17.29c5.93,-14.28 15.9,-25.55 25.84,-36.81c4.41,2.27 5.64,6.43 8.39,9.26c2.45,-1.74 3.97,-3.93 5.59,-6.03c8.63,-11.23 17.22,-22.49 25.94,-33.65c3.28,-4.21 4.09,-4.07 7.57,-0.05c5.77,6.68 11.56,13.35 17.45,19.93c4.63,5.17 9.42,10.19 14.39,15.55c12.57,-12.21 23.39,-25.32 35.09,-37.58c1.72,-1.81 0.72,-3.26 -0.19,-4.91c-6.03,-11.04 -10.17,-22.83 -13.18,-34.98c-1.15,-4.66 -3.07,-6.45 -8.05,-6.41c-28.98,0.21 -57.96,0.06 -86.94,0.07c-60.33,0.02 -120.66,0.24 -180.99,0c-20.98,-0.08 -40.75,4.05 -58.95,14.42c-33.65,19.17 -53.55,48.23 -54.33,86.9c-1.4,69.47 -0.52,138.99 -0.57,208.48c-0.02,26.33 0.1,52.66 -0.01,78.99c-0.02,4.42 0.83,6.88 5.93,7.67c11.53,1.77 20.22,7.98 25.82,18.45c4.8,8.98 11.89,15.83 21.55,19.19c12.48,4.33 20.54,12.61 26.15,24.42c5.32,11.22 14.86,17.63 27.31,19.5c7.2,1.08 14.58,1.2 21.45,4.21c12.77,5.59 22.13,14.65 28.07,27.2c1.45,3.09 3.36,4.43 6.92,4.39c17,-0.16 34,-0.04 50.99,-0.08c1.22,0 2.7,0.58 3.62,-0.94c-0.74,-1.98 -2.36,-3.19 -3.92,-4.41c-32.1,-25.04 -66.73,-45.16 -106.72,-54.81c-3.65,-0.88 -6.32,-2.7 -8.13,-5.98c-10.76,-19.47 -27.5,-32.13 -47.06,-41.79c-12.41,-6.14 -25.66,-10.3 -38.03,-16.5c-6.95,-3.49 -10.33,-9.1 -10.3,-16.88c0.04,-10.16 0.25,-20.34 -0.14,-30.49c-0.21,-5.52 1.76,-9.4 5.69,-13.09c39.39,-36.9 78.43,-74.19 118.48,-110.4c1.41,-1.27 3.38,-2.24 3.38,-4.74c-0.53,-0.37 -1.03,-0.83 -1.61,-1.1c-21.01,-9.73 -42.02,-19.46 -63.03,-29.17c-5.49,-2.54 -7.24,-5.35 -6.78,-10.89c0.43,-5.14 3.84,-7.48 8.3,-8.75c1.59,-0.46 3.25,-0.86 4.89,-0.93c9.65,-0.41 19.3,-0.67 28.95,-1.08c12.81,-0.55 25.61,-1.43 38.42,-1.74c12.8,-0.31 25.97,-3.88 38.09,3.48c3.99,2.42 7.11,1.03 10.23,-1.91c10.54,-9.95 21.52,-19.46 31.73,-29.72c6.83,-6.86 13.72,-8.92 22.3,-4.07c1.16,0.66 2.4,1.17 3.61,1.72c17.72,8.1 35.49,16.1 53.13,24.37c3.55,1.67 6.43,1.41 9.88,-0.08c13.48,-5.8 27.56,-8.74 42.31,-8.05c8.57,0.41 14.45,4.96 16.72,13.19c1.35,4.9 1.42,9.85 0.47,14.83c-2.83,14.78 -10.58,26.82 -20.96,37.34c-10.41,10.56 -20.95,20.99 -31.39,31.53c-1.2,1.21 -3.37,2.24 -2.25,4.49c2.99,6.06 6.14,12.05 9.3,18.22c1.55,-0.83 2.55,-1.41 3.58,-1.92c9.51,-4.67 18.71,-2.92 24.77,4.69c6.42,8.08 6.15,17.92 -0.9,25.99c-1.85,2.11 -4.03,4.01 -6.33,5.61c-2.3,1.59 -2.96,3.06 -1.79,5.79c3.3,7.64 6.46,15.34 9.39,23.13c4.68,12.44 10.54,24.51 12.55,37.83c1.43,9.46 -4.67,18.34 -13.58,19.43c-6.34,0.78 -11.28,-2.24 -15.37,-6.76c-8.48,-9.4 -16.94,-18.83 -25.31,-28.33c-19.17,-21.76 -37.19,-44.48 -55.27,-67.14c-2.84,-3.55 -4.67,-3.6 -7.79,-0.39c-16.25,16.74 -32.6,33.38 -49.12,49.85c-3.29,3.28 -4,6.17 -2.26,10.47c5.45,13.41 10.53,26.98 15.82,40.46c1.44,3.65 3.11,7.21 4.76,11c0.83,-0.64 1.24,-0.9 1.59,-1.22c19.7,-18.2 39.41,-36.39 59.09,-54.62c2.26,-2.09 4.66,-3.32 6.53,-0.04c1.64,2.88 7.85,4.71 2.72,9.57c-9.91,9.4 -19.82,18.79 -29.7,28.22c-14.46,13.81 -29.76,26.76 -43.01,41.78c-7.95,9 -12.71,8.74 -20.19,-0.81c-12.32,-15.74 -25.11,-31.12 -37.54,-46.78c-3.38,-4.27 -6.76,-5.3 -12.02,-3.25c-6.17,2.4 -12.69,3.97 -19.32,4.91c-8.6,1.21 -13.26,-2.98 -13.15,-11.72c0.06,-5.08 2.09,-9.48 4.6,-13.55c2.45,-3.97 1.9,-6.25 -1.94,-8.92c-12.18,-8.45 -24.14,-17.22 -36.13,-25.94c-6.09,-4.42 -7.45,-8.88 -4.69,-14.55c2.52,-5.17 8.65,-7.32 16.58,-5.99c20.81,3.49 41.64,6.93 62.46,10.4c3.82,0.63 7.12,0.04 10.01,-2.96c13.2,-13.65 26.56,-27.16 39.78,-40.79c1.66,-1.72 3.83,-3.26 4.11,-6.25c-1.05,-0.75 -2.1,-1.54 -3.19,-2.27c-15.95,-10.68 -33.02,-19.38 -49.87,-28.49c-4.05,-2.19 -6.52,-1.47 -9.54,1.42c-11.18,10.72 -22.5,21.3 -33.82,31.88c-25.2,23.54 -50.44,47.04 -75.65,70.57c-3.85,3.59 -7.64,7.24 -12.02,11.39c2.71,1.24 4.62,2.15 6.56,2.98c13.8,5.88 27.49,11.98 40,20.39c17.85,12.01 32.92,26.53 42.14,47.25m122.6,-160.53c-35.83,35.67 -71.9,71.12 -105.54,109.67c3.04,0.89 4.84,-0.12 6.66,-0.7c20.87,-6.73 39.66,-16.38 54.92,-33.02c19.59,-21.34 40.36,-41.61 60.86,-62.1c18.85,-18.85 37.27,-38.14 56.93,-56.16c3.31,-3.03 5.66,-2.58 7.24,1.11c1.09,2.55 -1.11,3.68 -2.27,5.05c-15.06,17.59 -30.65,34.71 -46.81,51.3c-7.78,7.98 -7.64,5.09 -0.83,14.09c7.03,9.3 14.53,18.25 21.95,27.24c16.55,20.05 33.27,39.95 52.25,57.8c2.7,2.54 5.07,5.68 9.05,6.67c1.48,-2.9 0.07,-5.21 -0.79,-7.43c-13.33,-34.3 -26.99,-68.47 -42.65,-101.79c-0.94,-2.01 -1.71,-5.99 -4.55,-4.71c-3.51,1.58 -0.49,4.68 0.44,6.83c9.18,21.06 18.07,42.24 26.58,63.59c0.33,0.84 0.96,1.82 -0.31,2.82c-1.54,-0.8 -2.05,-2.47 -2.84,-3.84c-12.75,-22.09 -24,-44.95 -34.93,-67.98c-1.13,-2.4 -0.71,-3.96 1,-5.73c8.65,-9.02 17.21,-18.12 25.83,-27.16c8.16,-8.55 16.39,-17.06 24.53,-25.64c1.95,-2.05 3.75,-4.26 3.53,-7.43c-0.51,-7.56 -2.71,-14.36 -8.42,-19.7c-5.87,-5.49 -12.41,-6.57 -19.65,-3.05c-4.99,2.43 -9.43,5.66 -13.3,9.63c-22.81,23.37 -45.59,46.76 -68.88,70.64m198.27,28.52c4.08,1.88 8.13,3.83 12.24,5.63c16.91,7.44 33.82,14.88 50.77,22.2c5.28,2.28 5.87,1.77 5.94,-4.15c0.07,-6 -0.12,-12 0.18,-17.98c0.19,-3.89 -1.3,-6.02 -4.75,-7.76c-9.03,-4.54 -18.09,-9.08 -26.58,-14.87c1.12,-3.89 3.24,-3.62 6.09,-2.17c6.37,3.24 12.83,6.33 19.29,9.4c1.57,0.75 3.07,2.17 5.05,1.22c2.25,-8.64 1.43,-12.33 -3.8,-15.24c-28.55,-15.86 -58.06,-29.72 -88.19,-42.28c-2.33,-0.98 -3.91,-0.73 -5.78,1c-5.62,5.2 -11.6,10.02 -17.1,15.33c-5.44,5.26 -10.48,10.94 -15.97,16.73c19.08,13.53 40.86,22.42 62.61,32.94m-335.34,227.27c2.52,2.16 5.3,4.1 7.51,6.55c2.91,3.22 6.15,4.5 10.53,4.33c7.99,-0.33 16,-0.05 24,-0.11c1.88,-0.01 3.9,0.37 5.64,-0.79c-3.9,-11.03 -17.24,-21.19 -30.51,-23.53c-6.37,-1.12 -12.93,-1.14 -19.08,-3.57c-11.64,-4.61 -20.35,-12.46 -26.25,-23.46c-3.56,-6.64 -6.97,-13.42 -14.7,-16.27c-15.36,-5.66 -26.95,-15.54 -34.51,-30.17c-3.17,-6.15 -9.23,-8.35 -15.39,-10.17c-1.59,-0.47 -3.31,-0.32 -3.35,1.75c-0.11,6.47 -0.85,13 0.85,19.38c1.14,4.28 5.43,5.12 8.45,7.27c7.3,5.2 13.69,11.3 20.07,18.35c-6.9,0.61 -12.79,-1.15 -19.29,-2.07c1.37,4.95 3.44,8.67 5.84,12.23c0.95,1.4 2.26,1.75 3.91,1.56c24.02,-2.72 40.8,10 55.88,26.29c0.21,0.23 0.02,0.84 0.02,1.38c-19.69,-5.09 -36.7,-16.06 -55.63,-23.82c10.59,19.46 53.88,46.89 67.81,42.79c-7.66,-5.43 -16.68,-7 -24.61,-10.99c4.19,-0.95 8.18,-0.92 12.08,-1.5c7.28,-1.08 13.88,0.53 20.73,4.57m44.62,-304.53c24.04,14.27 48.52,27.8 72.03,42.94c2.72,1.75 4.39,1.96 6.79,-0.49c6.29,-6.41 12.9,-12.5 19.31,-18.81c1.83,-1.81 4.07,-3.38 5.09,-6.25c-1.36,-0.93 -2.51,-1.89 -3.8,-2.58c-22.81,-12.05 -45.62,-24.1 -68.49,-36.04c-2.75,-1.44 -5.6,-2.78 -8.99,-2.49c-15.25,1.29 -30.52,2.3 -45.81,2.76c-4.3,0.13 -8.59,0.53 -13.32,0.83c12.55,6.79 24.55,13.28 37.19,20.13m341.79,-115.33c-7.1,-2.95 -9.81,-9.75 -13.39,-15.64c-3.27,-5.4 -7.26,-9.16 -13.63,-10.75c-7.16,-1.78 -8.94,-5.11 -8.13,-12.59c0.77,-7.09 -3.34,-14.52 -9.95,-17.9c-0.79,0.62 -0.5,2.51 -2.56,2.01c-1.3,-2.7 -0.22,-5.57 0.27,-8.62c-2.51,1.37 -2.81,4.93 -6.27,5.02c-1.29,-5.86 2.31,-11.05 1.92,-16.41c-8.17,-3.93 -16.33,-6.7 -25.09,-7.66c-0.81,2.81 0.17,4.84 0.76,6.84c10.27,34.72 30.31,62.71 58.97,84.57c9.29,7.08 19.46,12.83 30.44,17c1.86,0.71 4.38,1.78 4.44,-1.55c0.16,-8.8 -0.67,-17.48 -4.62,-25.81c-4.31,1.73 -8.15,3.59 -13.16,1.49m-5.17,106.36c-0.51,-6.53 -1.26,-13.01 -2.91,-20.6c-13.5,12.83 -26.21,24.9 -39.64,37.65c22.01,10.63 43.3,20.91 65.31,31.54c0,-22.25 0,-43.29 0,-65.43c-8.38,7 -14.26,15.14 -21.09,22.27c-1.75,-1.53 -1.46,-3.12 -1.67,-5.43m-263.18,-23.49c5.88,3.1 10.63,8.04 9.52,14.53c-1.36,7.98 2.6,10.61 8.54,12.81c0.62,0.23 1.24,0.51 1.79,0.88c3.27,2.2 6.1,2.2 9.36,-0.56c4.41,-3.75 10.52,-6.04 15.3,-3.04c6.65,4.18 9.44,0.32 13.02,-3.56c1.7,-1.83 3.5,-3.56 5.22,-5.38c5.1,-5.39 10.18,-10.79 15.24,-16.17c-1.67,-1.92 -3.44,-2.44 -5.09,-3.19c-15.61,-7.08 -31.23,-14.17 -46.82,-21.29c-6.06,-2.77 -6.75,-2.57 -10.6,3.78c17.62,9.8 37.05,16.04 54.35,26.88c-5.15,5.53 -7.31,6.12 -12.99,3.47c-15.08,-7.05 -30.24,-13.94 -44.88,-21.89c-3,-1.63 -5.42,-1.98 -8.02,0.63c-3.38,3.4 -6.97,6.6 -10.72,10.13c2.36,0.67 4.24,1.2 6.78,1.97m140.51,340.72c-2.02,1.72 -4.46,3.06 -5.19,6.2c42,-31.81 83.24,-64.65 130.71,-88.3c-2.43,-4.61 -4.41,-2.69 -6.26,-1.41c-7.67,5.29 -15.3,10.64 -22.97,15.93c-1.56,1.09 -3.03,2.65 -5.67,1.63c1.74,-4.24 5.08,-6.98 8.2,-9.78c13.64,-12.22 27.83,-23.79 43.1,-33.95c3.33,-2.22 4.57,-4.84 2.86,-9.16c-3.19,2.53 -6.07,4.75 -8.88,7.07c-25.82,21.27 -51.63,42.55 -77.44,63.83c-19.26,15.88 -39.12,31.03 -58.46,47.94m64.81,-25.16c-17.37,9.99 -35.4,18.87 -52.48,30.52c6.26,3.65 10.55,-0.16 14.74,-2.57c23.98,-13.81 48.92,-25.62 74.44,-36.22c6.61,-2.75 13.41,-5.01 20.01,-7.77c7.22,-3.03 10.62,-9.18 12.56,-16.52c-23.43,9.81 -46.17,20.69 -69.27,32.56m-372.56,-105.2c-9.08,-4.72 -17.84,-10.17 -27.88,-12.83c-2.82,8.24 -1.63,11.68 5.42,14.86c6.83,3.07 13.86,5.69 20.74,8.65c16.41,7.06 32.41,14.83 45.43,27.53c4.06,3.98 8.29,7.79 12.06,11.33c-2.3,-3.55 -4.48,-7.82 -7.58,-11.56c-13.17,-15.95 -30.07,-27.16 -48.19,-37.98m203.57,104.45c-7.38,-3.72 -14.77,-7.43 -23.19,-11.67c0.98,1.31 1.18,1.73 1.5,1.98c17.2,13.13 34.62,25.99 50.44,40.81c0.99,0.93 2.02,1.78 3.47,1.79c7.08,0.01 14.16,0 22.64,0c-18.34,-12.31 -36.13,-22.66 -54.86,-32.91m162.22,-3.04c4.18,-2.39 8.29,-4.93 12.57,-7.13c14.47,-7.43 29,-14.71 43.49,-22.1c2.75,-1.41 6.23,-2.47 4.12,-7.14c10.18,4.31 22.36,-2.72 23.55,-17.21c-1.74,0.91 -3.39,1.69 -4.95,2.6c-21.69,12.65 -43.13,25.71 -64.16,39.45c-5.42,3.54 -10.59,7.48 -15.85,11.27c-0.42,0.31 -0.56,0.8 0.31,0.67c0.16,-0.02 0.3,-0.13 0.92,-0.41m-196.49,14.52c0.56,0.33 1.12,0.66 1.67,0.99c-0.79,-1.64 -2.01,-2.85 -3.27,-4.02c-12.1,-11.29 -25.28,-21.18 -39.4,-29.79c-11.54,-7.03 -23.38,-13.5 -36.76,-16.48c-9.32,-2.07 -11.35,-1.99 -15.76,0.51c34.92,8.92 64.61,27.48 93.52,48.79m-32.15,-123.07c5.13,8.19 9.76,16.69 15.8,24.31c-4.92,-15.45 -10.69,-30.55 -17.19,-45.3c-8.02,2.08 -8.59,3.13 -5.16,9.56c1.96,3.66 4.12,7.21 6.55,11.43m-42.85,-46.99c2.08,-2.3 4.16,-4.6 6.97,-7.7c-11.84,-1.68 -22.78,-3.23 -33.71,-4.78c8.72,4.39 16.68,10.17 26.74,12.48m322.08,-289.55c1.42,-0.59 3.2,-1.25 1.63,-3.11c-4.07,-4.78 -9.1,-8.28 -14.73,-11.19c-2.4,6.01 -0.86,11.06 4.05,15.7c3.4,3.23 5.63,-0.71 9.05,-1.4m-18.49,465.4c-12.32,4.22 -24.51,8.78 -36.24,14.52c15.09,-1.81 28.6,-7.9 41.49,-15.86c-1.52,0.37 -3.04,0.73 -5.25,1.34m37.74,-81.17c0.07,2.41 2.38,2.65 3.58,2.53c4.59,-0.46 8.08,-3.6 11.85,-5.88c2.57,-1.56 1.2,-4.78 1.76,-8.26c-6.12,4.06 -11.46,7.6 -17.19,11.61m-130.93,-245.37c0.39,1.23 0.79,2.45 1.32,4.09c3.87,-11.83 1.05,-16.63 -9.78,-16.25c3.96,3.31 6.61,7.06 8.46,12.16m117.37,304.52c-8.54,3.53 -8.54,3.53 -9.22,6.69c5.8,-1.81 13.62,1.13 16.04,-7.82c-2.55,-1.03 -4.23,0.49 -6.82,1.13m-23.05,9.47c-0.12,0.45 -0.47,1.21 -0.32,1.32c2.96,2.32 5.52,-0.2 8.2,-0.84c1.91,-0.45 3.71,-1.42 2.83,-4.3c-3.87,0.14 -7.1,1.6 -10.71,3.82m-102.42,-204.98c-1.16,-6.64 -6.82,-9.26 -12.22,-4.86c5.38,-0.32 7.87,4.23 12.22,4.86m90.18,210.22c-2.39,1.26 -4.78,2.52 -7.18,3.78c5.36,-0.45 10.4,-1.43 15.1,-5.29c-3.43,-1.48 -5.22,0.49 -7.92,1.51m-224.02,-314.65c-2.41,-2.81 -5.33,-3.26 -9.85,-1.76c4.19,1.94 7.41,3.44 11.53,5.34c-0.69,-1.69 -0.98,-2.39 -1.68,-3.58m204.97,325.59c2.17,-1.16 4.33,-2.32 6.5,-3.47c-5.09,1.01 -9.68,2.98 -13.49,6.56c2.11,-0.94 4.21,-1.88 6.99,-3.09z" fill="#082b4a" id="svg_1" opacity="1"/>
  <path d="m381.46,312.81c-1.11,5.89 1.25,8.6 6.61,9.93c12.27,3.05 24.43,6.53 36.65,9.8c1.43,0.38 3.01,0.31 4.09,1.88c-1.63,2.23 -4.08,-0.09 -6.04,1.09c3.24,1.62 6.68,2.03 10.01,2.8c0.97,0.22 2.2,0.56 2.58,-0.69c1.41,-4.57 4.71,-1.94 7.04,-1.66c2.8,0.33 1.86,3.07 1.95,4.92c0.62,13.56 -1.99,26.32 -8.1,38.62c-2.67,5.39 -8.16,7.75 -10.84,12.79c-0.59,1.11 -2.15,1.05 -3.13,0.19c-2.18,-1.91 -4.94,-3.42 -5.37,-6.4c7.08,-5.89 10.44,-13.76 13.85,-21.57c1.04,-2.4 1.37,-5.08 4.22,-6.43c1.91,-0.9 1.76,-3.08 1.68,-4.91c-0.15,-3.43 0.63,-6.94 -0.73,-10.64c-12.53,2.1 -24.94,4.17 -37.35,6.27c-3.77,0.64 -7.5,1.58 -11.29,2c-3.94,0.42 -5.25,2.23 -5.18,6.19c0.22,11.54 -1.58,22.89 -4.01,34.14c-0.13,0.59 -0.55,1.13 -1.08,2.15c-2.46,-2.03 -2.13,-4.63 -2.21,-6.89c-0.29,-8.48 -1.43,-16.92 -1.15,-25.44c0.13,-3.84 0.13,-7.04 -5.93,-5.95c-6.61,1.19 -6.83,0.43 -7.23,7.4c-0.5,8.47 0.37,17.01 -1.09,25.44c-0.26,1.56 0.13,3.41 -2.18,4.81c-2.73,-8.2 -3.79,-16.48 -4.46,-24.81c-0.3,-3.81 -0.25,-7.67 -0.06,-11.49c0.15,-3.21 -0.87,-4.75 -4.26,-5.37c-14.06,-2.55 -28.14,-4.97 -42.33,-6.67c-1.98,-0.23 -3.9,-0.49 -6.87,-2.02c18.72,-3.91 36.47,-6.21 54.41,-8.37c1.54,4.47 0.23,9.02 2.47,13.59c4.3,-1.65 7,-5.14 9.83,-8.45c0.77,-0.9 0.3,-1.97 -0.41,-2.72c-3.16,-3.42 -6.17,-7.03 -9.65,-10.1c-2.14,-1.89 -5.07,-0.85 -7.68,-0.29c-13.67,2.92 -27.34,5.81 -41.01,8.74c-1.29,0.28 -2.53,0.79 -4.17,-0.25c3.29,-2.32 6.93,-2.77 10.38,-3.6c11.33,-2.72 22.65,-5.43 34.03,-7.88c4.25,-0.92 5.55,-3.06 5.51,-7.32c-0.18,-16.34 4.34,-31.87 8.89,-47.36c0.18,-0.64 0.56,-1.22 1.95,-1.27c-0.64,6.15 -1.24,12.25 -1.9,18.34c-1.13,10.47 -0.75,20.97 -0.57,31.45c0.07,3.59 1.67,7.31 5.37,7.29c3.8,-0.02 5.77,-3.59 5.99,-7.44c0.62,-11.01 -0.58,-21.97 -1.38,-32.92c-0.59,-8.12 -0.25,-16.35 -2.07,-24.36c-0.41,-1.84 -0.08,-4.12 -2.43,-5.44c-3.04,0.9 -2.39,4.79 -4.68,6.38c-1.45,-3.53 0.14,-8.77 3.31,-10.01c4.24,-1.65 5.82,1.86 6.87,4.67c3.72,9.86 5.06,20.32 6.82,30.63c1.51,8.83 2.58,17.78 2.33,27.21m8.05,22.28c-2.65,-1.71 -5.28,-3.46 -7.95,-5.13c-1.22,-0.77 -2.5,-2.11 -4.01,-0.79c-2.72,2.38 -5.76,4.39 -7.37,7.95c-1.21,2.67 -0.03,4.2 1.74,5.52c2.36,1.75 4.21,5.92 7.77,3.81c5.09,-3.03 10.7,-4.99 16.19,-8.18c-2.22,-1.12 -3.97,-2 -6.37,-3.18z" fill="#082b4a" id="svg_2" opacity="1" transform="matrix(1 0 0 1 0 0)"/>
  <path d="m648.56,602.39c9.48,5.22 18.72,10.13 27.77,16.11c-2.71,4.06 -6.38,6.66 -9.67,9.59c-13.78,12.28 -27.68,24.44 -41.46,36.72c-2.09,1.86 -3.88,2.68 -6.62,1.19c-22.8,-12.39 -45.65,-24.69 -68.03,-37.84c-0.82,-0.49 -1.48,-1.26 -2.16,-1.86c3.85,-8.04 6.58,-8.97 13.56,-4.88c18.08,10.61 36.47,20.66 54.92,30.62c2.34,1.26 3.96,1.51 6.14,-0.51c9.91,-9.13 19.98,-18.08 30.02,-27.07c4.15,-3.72 4.07,-4.61 -0.9,-7.4c-2.75,-1.56 -5.5,-3.12 -8.25,-4.67c-7.95,-4.48 -8.45,-5.62 -6.51,-15.68c4.2,0.76 7.3,3.66 11.19,5.68z" fill="#082b4a" id="svg_3" opacity="1" transform="matrix(1 0 0 1 0 0)"/>
  <path d="m631.69,557.53c-3.82,-1.72 -3.51,-3.39 -1.12,-6.1c3.69,-4.18 6.76,-4.29 11.9,-1.69c23.74,11.99 47.82,23.31 71.77,34.88c1.02,0.5 1.99,1.1 2.98,1.65c-4.33,8.19 -6.91,9.42 -14.77,5.66c-23.55,-11.26 -46.97,-22.79 -70.76,-34.4z" fill="#082b4a" id="svg_4" opacity="1" transform="matrix(1 0 0 1 0 0)"/>
  <path d="m576.39,695.69c-23.09,-12.62 -45.86,-25.04 -68.54,-37.4c3.73,-8.71 6.66,-9.56 13.81,-5.63c23.06,12.68 46.21,25.2 69.32,37.79c1.57,0.85 3.39,1.38 4.35,3.05c-5.6,8.32 -6.53,8.59 -14.63,4.44c-1.34,-0.68 -2.67,-1.37 -4.31,-2.25z" fill="#082b4a" id="svg_5" opacity="1" transform="matrix(1 0 0 1 0 0)"/>
  <path d="m399.8,507.3c-5.38,-2.9 -11.05,-4.55 -15.49,-8.31c3.21,-7.15 5.35,-8.08 11.69,-5.23c12.4,5.57 25.06,10.58 37.12,16.91c0.86,0.46 1.68,0.99 2.52,1.48c-3.87,7.33 -8.04,8.68 -14.88,5.25c-6.82,-3.42 -13.74,-6.65 -20.96,-10.1z" fill="#082b4a" id="svg_6" opacity="1" transform="matrix(1 0 0 1 0 0)"/>
  <path d="m307.05,383.98c-7.66,4.17 -7.56,4.12 -11.88,-3.96c-6.7,-12.56 -8.55,-25.95 -7.7,-39.99c0.26,-4.39 2.84,-4.72 5.88,-4.84c3.96,-0.15 3.05,3.03 2.7,5.01c-2.41,13.45 4.83,24.09 9.99,35.35c0.48,1.05 1.15,2.03 1.78,3c1.18,1.78 1.05,3.42 -0.63,5.19c-0.18,0.26 -0.14,0.24 -0.14,0.24z" fill="#082b4a" id="svg_7" opacity="1" transform="matrix(1 0 0 1 0 0)"/>
  <path d="m312.78,286.86c1.52,2.87 0.73,5.17 -1.16,7.73c-4.44,6.03 -8.39,12.37 -10.74,19.59c-1.97,6.03 -6.94,3.28 -11.04,3.94c-0.9,-3.98 0.41,-7.25 1.6,-10.44c2.77,-7.4 6.9,-14.01 12.22,-19.84c1.76,-1.93 3.54,-4.19 7.22,-2.64c0.94,0.76 1.42,1.21 1.9,1.66z" fill="#082b4a" id="svg_8" opacity="1" transform="matrix(1 0 0 1 0 0)"/>
  <path d="m436.91,298.24c2.69,5.2 4.8,10.22 6.04,15.6c0.78,3.4 -0.5,4.62 -3.88,4.22c-4.1,-0.49 -7.42,-1.27 -8.54,-6.36c-1.46,-6.72 -5.57,-12.39 -9.49,-17.9c-2.7,-3.79 -0.7,-5.34 1.83,-7.71c3.03,-2.84 4.9,-1.48 6.93,0.93c2.8,3.32 4.93,7.06 7.11,11.22z" fill="#082b4a" id="svg_9" opacity="1"/>
  <path d="m509.11,571.77c1.95,1.25 3.59,2.32 5.34,3.46c-1.2,3.29 -4.21,4.5 -6.03,6.75c-0.65,0.81 -1.76,1.05 -2.72,0.46c-8.96,-5.52 -17.89,-11.08 -26.84,-16.63c5.89,-8.86 6.56,-8.97 14.33,-3.93c5.14,3.34 10.41,6.48 15.92,9.89z" fill="#082b4a" id="svg_10" opacity="1" transform="matrix(1 0 0 1 0 0)"/>
  <path d="m271.64,459.35c-0.78,3.33 -1.43,6.36 -2.35,10.67c-2.17,-4.17 -0.73,-7.27 -0.54,-10.15c0.57,-8.31 3.81,-15.77 8.17,-22.77c1.18,-1.9 2.71,-3 4.97,-1.55c1.98,1.28 4.19,2.43 2.73,5.47c-4.28,8.91 -6.81,18.39 -8.99,27.99c-0.13,0.57 -0.66,1.06 -1.27,2.01c-2.56,-3.55 -1.03,-6.94 -0.84,-10.2c0.1,-1.7 0.12,-1.7 -1.88,-1.47z" fill="#082b4a" id="svg_11" opacity="1" transform="matrix(1 0 0 1 0 0)"/>
  <path d="m277.31,488.95c0.87,5.34 1.7,10.24 2.59,15.13c0.4,2.24 0.91,4.57 -2.32,4.9c-2.7,0.27 -5.8,2.12 -7.06,-2.69c-2,-7.59 -3.33,-15.16 -2.7,-22.95c8.57,-1.74 9.03,-1.48 9.49,5.61z" fill="#082b4a" id="svg_12" opacity="1" transform="matrix(1 0 0 1 0 0)"/>
  <path d="m482.97,296.38c3.01,-0.98 5.73,-1.29 7.49,1.38c1.66,2.52 0.76,5.16 -0.58,7.52c-2.46,4.37 -6.11,7.82 -9.38,11.55c-1.78,2.04 -3.51,0.93 -5.26,-0.21c-2.08,-1.35 -2.94,-3.02 -1.93,-5.46c2.26,-5.4 5.3,-10.29 9.66,-14.78z" fill="#082b4a" id="svg_13" opacity="1" transform="matrix(1 0 0 1 0 0)"/>
  <path d="m390.58,378.84c7.26,-5.26 7.27,-10.75 1.48,-16.74c-0.27,-0.27 -0.12,-0.94 -0.16,-1.33c0.82,-1.43 2.09,-1.21 3.15,-0.9c3.63,1.08 7.21,1.01 10.84,0.05c1.32,-0.35 2.75,-0.31 3.42,1.23c0.57,1.31 0,2.45 -1.23,2.83c-5.24,1.65 -3.48,5.44 -2.4,8.57c1.01,2.9 0.78,4.32 -2.49,4.9c-3.32,0.59 -5.99,2.85 -9.05,4.13c-2.1,0.88 -4.61,1.71 -3.56,-2.74z" fill="#082b4a" id="svg_14" opacity="1" transform="matrix(1 0 0 1 0 0)"/>
  <path d="m592.92,257.28c-4.44,-0.51 -5.75,-2.83 -5.03,-6.64c0.36,-1.94 1.37,-3.08 3.39,-2.77c8.22,1.25 16.23,3.2 23.5,7.35c-2.42,7.76 -2.88,7.89 -9.96,5.32c-3.73,-1.35 -7.65,-2.16 -11.9,-3.26z" fill="#082b4a" id="svg_15" opacity="1" transform="matrix(1 0 0 1 0 0)"/>
  <path d="m409.33,311.69c-5.81,1.17 -11.39,-1.56 -16.63,1.53c-1.34,-3.35 0.88,-4.68 2.01,-6.29c2.47,-3.57 3.08,-6.52 -1.49,-8.95c-2.18,-1.16 -3.91,-2.97 -4.47,-6.49c6.01,0.13 10.65,2.98 15.56,4.85c-1.16,5.89 2.47,9.72 5.79,13.72c0.17,0.2 -0.27,0.9 -0.77,1.63z" fill="#082b4a" id="svg_16" opacity="1" transform="matrix(1 0 0 1 0 0)"/>
  <path d="m340.88,312.73c-4.74,-0.86 -9.24,-1.41 -13.87,-0.47c-1.5,0.3 -3.13,-0.07 -3.72,-1.77c-0.68,-1.97 0.48,-3.17 2.16,-3.88c2.01,-0.85 3.61,-2.09 3.19,-4.45c-0.94,-5.33 1.64,-7.33 6.56,-8.06c2.95,-0.43 5.53,-2.97 8.93,-1.96c0.27,3.29 -1.92,4.85 -4.07,5.87c-4.59,2.17 -4.05,4.92 -1.61,8.31c1.32,1.84 3.27,3.45 2.43,6.41z" fill="#082b4a" id="svg_17" opacity="1" transform="matrix(1 0 0 1 0 0)"/>
  <path d="m337.52,380.71c-3.37,-2.24 -6.8,-3.36 -10.15,-4.06c-0.8,-1.9 0.15,-3.22 0.62,-4.59c1.07,-3.11 1.22,-5.88 -2.23,-7.66c-1.29,-0.66 -2.16,-1.66 -1.67,-3.21c0.52,-1.62 1.97,-1.9 3.26,-1.47c4.34,1.42 8.84,0.69 13.23,0.9c0.82,2.67 -1.25,3.78 -2.39,5.26c-2.56,3.32 -2.83,6.14 0.97,8.85c2.26,1.6 4.49,3.5 4.32,6.79c-2.12,1.53 -3.81,-0.1 -5.96,-0.81z" fill="#082b4a" id="svg_18" opacity="1" transform="matrix(1 0 0 1 0 0)"/>
  <path d="m515.2,265.18c5.41,-5.72 12.24,-8.42 19.31,-10.08c5.51,-1.29 4.23,4.03 5.64,7.07c-6.37,2.93 -12.38,6.02 -18.64,8.48c-4.35,1.7 -4.84,-2.64 -6.31,-5.47z" fill="#082b4a" id="svg_19" opacity="1" transform="matrix(1 0 0 1 0 0)"/>
  <path d="m574.73,255.95c-6.59,0.19 -12.57,1.61 -18.53,2.88c-2.84,0.6 -4.33,0.35 -5.05,-2.7c-0.7,-3 -0.58,-4.93 3.06,-5.87c4.98,-1.27 9.96,-2.29 15.09,-2.78c7.28,-0.7 8.76,1.3 5.43,8.47z" fill="#082b4a" id="svg_20" opacity="1" transform="matrix(1 0 0 1 0 0)"/>
  <path d="m441.43,263.54c-1.13,-8.01 0.1,-9.4 7.51,-8.65c4.26,0.43 8.5,1.17 12.74,1.78c2.24,0.31 4.04,1.16 3.07,3.83c-0.88,2.42 -0.59,6.1 -4.85,5.61c-6.06,-0.71 -12.1,-1.49 -18.47,-2.57z" fill="#082b4a" id="svg_21" opacity="1"/>
  <path d="m494.42,268.52c2.04,1.21 3.57,2.45 1.51,4.38c-1.71,1.6 -2.15,5.54 -5.94,3.74c-5.09,-2.42 -10.15,-4.9 -15.18,-7.45c-3.05,-1.54 -0.95,-3.63 -0.43,-5.54c0.66,-2.43 1.92,-3.82 4.67,-2.93c5.41,1.76 10.28,4.59 15.37,7.8z" fill="#082b4a" id="svg_22" opacity="1"/>
  <path d="m511.02,281.05c2.92,3.62 5.63,6.96 8.26,10.37c1.51,1.97 1.86,3.84 -0.76,5.34c-2.22,1.27 -4.16,3.67 -6.75,0.42c-2.58,-3.23 -5.27,-6.4 -8.19,-9.33c-2.92,-2.92 -3.08,-5.09 0.05,-8.22c3.44,-3.44 5.07,-0.98 7.39,1.42z" fill="#082b4a" id="svg_23" opacity="1" transform="matrix(1 0 0 1 0 0)"/>
  <path d="m631.69,282.53c-3.19,-3.43 -6.05,-6.67 -8.96,-9.85c-2.72,-2.97 -0.45,-4.66 1.49,-6.6c2.13,-2.12 4.11,-2.7 6.23,-0.09c2.1,2.59 4.32,5.07 6.29,7.75c3.54,4.82 1.68,8.26 -5.05,8.79z" fill="#082b4a" id="svg_24" opacity="1" transform="matrix(1 0 0 1 0 0)"/>
  <path d="m528.92,319.84c-1.81,1.4 -2.65,3.46 -5.43,3.91c-1.39,-5 -2.81,-10.01 -4.16,-15.04c-0.52,-1.93 0.87,-2.69 2.35,-3.19c1.94,-0.65 3.78,-2.58 5.99,-0.9c3.6,2.75 4.46,11.8 1.25,15.22z" fill="#082b4a" id="svg_25" opacity="1" transform="matrix(1 0 0 1 0 0)"/>
  <path d="m287.96,524.96c-1.23,0.9 -2.15,1.6 -3.07,2.29c-1.29,0.96 -2.51,2.61 -4.33,1.54c-2.06,-1.22 -3.42,-3.21 -3.65,-5.62c-0.2,-2.12 1.81,-2.54 3.22,-3.28c5.65,-2.92 8.43,-1.24 7.83,5.07z" fill="#082b4a" id="svg_26" opacity="1"/>
  <path d="m306.99,384.02c1.85,-0.44 3.89,-1.73 5.26,0.78c1.28,2.36 -0.93,3.17 -2.15,4.37c-0.82,0.82 -1.73,1.55 -2.59,2.34c-1.54,1.42 -3.14,1.98 -4.71,0.11c-1.56,-1.86 0.04,-3.02 1.11,-4.23c0.88,-0.99 1.85,-1.9 2.96,-3.13c0.18,-0.28 0.14,-0.26 0.12,-0.24z" fill="#082b4a" id="svg_27" opacity="1" transform="matrix(1 0 0 1 0 0)"/>
  <path d="m313.13,286.98c-0.83,-0.57 -1.31,-1.02 -1.93,-1.68c-0.49,-2.01 -2.26,-4.08 0.16,-5.47c1.82,-1.06 3.57,0.19 4.79,1.53c1.45,1.57 4.47,2.62 3.34,5.38c-1.5,3.65 -3.91,1.44 -6.36,0.24z" fill="#082b4a" id="svg_28" opacity="1" transform="matrix(1 0 0 1 0 0)"/>
  <path d="m419.98,279.94c2.04,-1.07 3.58,-0.84 4.44,0.99c0.81,1.73 -0.58,2.76 -1.65,3.75c-0.96,0.89 -2.15,1.54 -3.09,2.46c-1.69,1.64 -3.19,1.44 -4.61,-0.26c-1.53,-1.83 -0.34,-2.98 1.08,-4.05c1.18,-0.9 2.35,-1.8 3.83,-2.89z" fill="#082b4a" id="svg_29" opacity="1" transform="matrix(1 0 0 1 0 0)"/>
  <path d="m663.95,469.18c-3.09,-1.27 -6.11,-1.78 -8.56,-3.65c0.07,-3.73 1.37,-5.23 5.26,-3.82c5.65,2.04 11.09,4.49 16.39,7.27c1.32,0.69 2.91,1.42 1.98,3.36c-0.86,1.8 -2.56,1.36 -3.94,0.89c-3.62,-1.22 -7.17,-2.62 -11.13,-4.05z" fill="#082b4a" id="svg_30" opacity="1"/>
  <path d="m712.38,489.62c-1.27,-0.51 -2.23,-0.82 -3.12,-1.26c-1.36,-0.69 -2.94,-1.53 -1.97,-3.36c0.87,-1.66 2.43,-0.7 3.52,-0.15c2.38,1.2 5.69,1.47 5.91,5.15c-1.54,1.87 -2.71,0.06 -4.34,-0.38z" fill="#082b4a" id="svg_31" opacity="1" transform="matrix(1 0 0 1 0 0)"/>
  <path d="m688.69,474.07c1.53,0.98 3.04,1.6 2.28,4.15c-3.5,-0.66 -7.42,-0.2 -9.17,-4.83c2.76,-1.66 4.6,-0.13 6.89,0.68z" fill="#082b4a" id="svg_32" opacity="1"/>
  <path d="m703.74,483.15c-5.38,1.25 -8.91,-1.04 -8.38,-5.38c3.26,1.06 6.63,1.63 8.38,5.38z" fill="#082b4a" id="svg_33" opacity="1"/>
  <path d="m720.96,494.16c-1.7,-2.43 -1.31,-4.01 1.49,-3.21c2.54,0.73 5.26,1.78 6.79,4.93c-3.27,1.35 -5.56,-0.47 -8.28,-1.72z" fill="#082b4a" id="svg_34" opacity="1"/>
 </g>
</svg>